<?xml version="1.0" encoding="UTF-8"?><svg id="Layer_1" xmlns="http://www.w3.org/2000/svg" xmlns:xlink="http://www.w3.org/1999/xlink" viewBox="0 0 201.19 256.33"><defs><linearGradient id="linear-gradient" x1="151.03" y1="239.17" x2="66.18" y2="6.04" gradientUnits="userSpaceOnUse"><stop offset="0" stop-color="#ffd2ba"/><stop offset="1" stop-color="#ff7fa9"/></linearGradient></defs><path d="M100.6,0C45.04,0,0,45.04,0,100.6c0,38.48,21.61,71.91,53.35,88.83l34.08,59.03c6.06,10.5,21.22,10.5,27.28,0l34.51-59.78c30.99-17.14,51.97-50.16,51.97-88.08C201.19,45.04,156.15,0,100.6,0Zm0,127.42c-14.82,0-26.83-12.01-26.83-26.83s12.01-26.83,26.83-26.83,26.83,12.01,26.83,26.83-12.01,26.83-26.83,26.83Z" fill="url(#linear-gradient)"/></svg>